<?xml version="1.0" encoding="iso-8859-1"?>
<!-- Generator: Adobe Illustrator 19.0.0, SVG Export Plug-In . SVG Version: 6.00 Build 0)  -->
<svg version="1.1" id="Capa_1" xmlns="http://www.w3.org/2000/svg" xmlns:xlink="http://www.w3.org/1999/xlink" x="0px" y="0px"
	 viewBox="0 0 512 512" style="enable-background:new 0 0 512 512;" xml:space="preserve">
<g>
	<g>
		<path d="M511.269,197.264c-1.817-5.596-6.755-9.599-12.605-10.22l-162.433-17.268L269.615,20.63
			c-2.399-5.372-7.732-8.831-13.615-8.831c-5.883,0-11.216,3.459-13.615,8.831l-66.616,149.146L13.336,187.044
			c-5.85,0.622-10.787,4.625-12.605,10.22c-1.818,5.596-0.177,11.736,4.19,15.678l121.262,109.445L92.41,482.205
			c-1.217,5.756,1.065,11.689,5.824,15.147c4.759,3.458,11.106,3.794,16.205,0.859L256,416.705l141.56,81.506
			c2.311,1.331,4.879,1.989,7.439,1.989c3.088,0,6.164-0.957,8.766-2.848c4.76-3.458,7.041-9.391,5.824-15.147l-33.773-159.818
			l121.262-109.445C511.446,209,513.088,202.859,511.269,197.264z M359.462,306.001c-3.945,3.561-5.696,8.953-4.598,14.153
			l28.645,135.555L263.44,386.577c-4.606-2.651-10.275-2.651-14.881,0L128.49,455.709l28.645-135.555
			c1.099-5.2-0.652-10.592-4.598-14.153L49.686,213.172l137.773-14.646c5.285-0.562,9.871-3.895,12.039-8.747L256,63.276
			l56.503,126.503c2.167,4.853,6.754,8.185,12.039,8.747l137.772,14.646L359.462,306.001z"/>
	</g>
</g>
<g>
</g>
<g>
</g>
<g>
</g>
<g>
</g>
<g>
</g>
<g>
</g>
<g>
</g>
<g>
</g>
<g>
</g>
<g>
</g>
<g>
</g>
<g>
</g>
<g>
</g>
<g>
</g>
<g>
</g>
</svg>
