<?xml version="1.0" encoding="iso-8859-1"?>
<!-- Generator: Adobe Illustrator 19.0.0, SVG Export Plug-In . SVG Version: 6.00 Build 0)  -->
<svg version="1.1" id="Capa_1" xmlns="http://www.w3.org/2000/svg" xmlns:xlink="http://www.w3.org/1999/xlink" x="0px" y="0px"
	 viewBox="0 0 512 512" style="enable-background:new 0 0 512 512;" xml:space="preserve">
<g>
	<g>
		<path d="M46,0c-8.284,0-15,6.716-15,15v482c0,8.284,6.716,15,15,15s15-6.716,15-15V15C61,6.716,54.284,0,46,0z"/>
	</g>
</g>
<g>
	<g>
		<path d="M286,62H106c-8.284,0-15,6.716-15,15v120c0,8.284,6.716,15,15,15h180c8.284,0,15-6.716,15-15V77
			C301,68.716,294.284,62,286,62z M271,182H121V92h150V182z"/>
	</g>
</g>
<g>
	<g>
		<path d="M466,302H106c-8.284,0-15,6.716-15,15v120c0,8.284,6.716,15,15,15h360c8.284,0,15-6.716,15-15V317
			C481,308.716,474.284,302,466,302z M451,422H121v-90h330V422z"/>
	</g>
</g>
<g>
</g>
<g>
</g>
<g>
</g>
<g>
</g>
<g>
</g>
<g>
</g>
<g>
</g>
<g>
</g>
<g>
</g>
<g>
</g>
<g>
</g>
<g>
</g>
<g>
</g>
<g>
</g>
<g>
</g>
</svg>
