<?xml version="1.0" encoding="iso-8859-1"?>
<!-- Generator: Adobe Illustrator 19.0.0, SVG Export Plug-In . SVG Version: 6.00 Build 0)  -->
<svg version="1.1" id="Capa_1" xmlns="http://www.w3.org/2000/svg" xmlns:xlink="http://www.w3.org/1999/xlink" x="0px" y="0px"
	 viewBox="0 0 512 512" style="enable-background:new 0 0 512 512;" xml:space="preserve">
<g>
	<g>
		<path d="M436,150H331V15c0-8.284-6.716-15-15-15s-15,6.716-15,15v482c0,8.284,6.716,15,15,15s15-6.716,15-15V360h105
			c8.284,0,15-6.716,15-15V165C451,156.716,444.284,150,436,150z M421,330h-90V180h90V330z"/>
	</g>
</g>
<g>
	<g>
		<path d="M196,60H91V15c0-8.284-6.716-15-15-15S61,6.716,61,15v482c0,8.284,6.716,15,15,15s15-6.716,15-15v-47h105
			c8.284,0,15-6.716,15-15V75C211,66.716,204.284,60,196,60z M181,420H91V90h90V420z"/>
	</g>
</g>
<g>
</g>
<g>
</g>
<g>
</g>
<g>
</g>
<g>
</g>
<g>
</g>
<g>
</g>
<g>
</g>
<g>
</g>
<g>
</g>
<g>
</g>
<g>
</g>
<g>
</g>
<g>
</g>
<g>
</g>
</svg>
