<?xml version="1.0" encoding="iso-8859-1"?>
<!-- Generator: Adobe Illustrator 19.0.0, SVG Export Plug-In . SVG Version: 6.00 Build 0)  -->
<svg version="1.1" id="Capa_1" xmlns="http://www.w3.org/2000/svg" xmlns:xlink="http://www.w3.org/1999/xlink" x="0px" y="0px"
	 viewBox="0 0 512 512" style="enable-background:new 0 0 512 512;" xml:space="preserve">
<g>
	<g>
		<path d="M497,301H15c-8.284,0-15,6.716-15,15s6.716,15,15,15h137v105c0,8.284,6.716,15,15,15h180c8.284,0,15-6.716,15-15V331h135
			c8.284,0,15-6.716,15-15S505.284,301,497,301z M332,421H182v-90h150V421z"/>
	</g>
</g>
<g>
	<g>
		<path d="M497,61H15C6.716,61,0,67.716,0,76s6.716,15,15,15h47v105c0,8.284,6.716,15,15,15h360c8.284,0,15-6.716,15-15V91h45
			c8.284,0,15-6.716,15-15S505.284,61,497,61z M422,181H92V91h330V181z"/>
	</g>
</g>
<g>
</g>
<g>
</g>
<g>
</g>
<g>
</g>
<g>
</g>
<g>
</g>
<g>
</g>
<g>
</g>
<g>
</g>
<g>
</g>
<g>
</g>
<g>
</g>
<g>
</g>
<g>
</g>
<g>
</g>
</svg>
