<?xml version="1.0" encoding="iso-8859-1"?>
<!-- Generator: Adobe Illustrator 19.0.0, SVG Export Plug-In . SVG Version: 6.00 Build 0)  -->
<svg version="1.1" id="Capa_1" xmlns="http://www.w3.org/2000/svg" xmlns:xlink="http://www.w3.org/1999/xlink" x="0px" y="0px"
	 viewBox="0 0 512 512" style="enable-background:new 0 0 512 512;" xml:space="preserve">
<g>
	<g>
		<path d="M497,31H15C6.716,31,0,37.716,0,46s6.716,15,15,15h482c8.284,0,15-6.716,15-15S505.284,31,497,31z"/>
	</g>
</g>
<g>
	<g>
		<path d="M437,91H317c-8.284,0-15,6.716-15,15v180c0,8.284,6.716,15,15,15h120c8.284,0,15-6.716,15-15V106
			C452,97.716,445.284,91,437,91z M422,271h-90V121h90V271z"/>
	</g>
</g>
<g>
	<g>
		<path d="M197,91H77c-8.284,0-15,6.716-15,15v360c0,8.284,6.716,15,15,15h120c8.284,0,15-6.716,15-15V106
			C212,97.716,205.284,91,197,91z M182,451H92V121h90V451z"/>
	</g>
</g>
<g>
</g>
<g>
</g>
<g>
</g>
<g>
</g>
<g>
</g>
<g>
</g>
<g>
</g>
<g>
</g>
<g>
</g>
<g>
</g>
<g>
</g>
<g>
</g>
<g>
</g>
<g>
</g>
<g>
</g>
</svg>
