<?xml version="1.0" encoding="iso-8859-1"?>
<!-- Generator: Adobe Illustrator 19.0.0, SVG Export Plug-In . SVG Version: 6.00 Build 0)  -->
<svg version="1.1" id="Capa_1" xmlns="http://www.w3.org/2000/svg" xmlns:xlink="http://www.w3.org/1999/xlink" x="0px" y="0px"
	 viewBox="0 0 512 512" style="enable-background:new 0 0 512 512;" xml:space="preserve">
<g>
	<g>
		<path d="M497,0H255C186.887,0,122.851,26.524,74.688,74.688C26.524,122.851,0,186.887,0,255v242c0,8.284,6.716,15,15,15
			s15-6.716,15-15V255C30,130.935,130.935,30,255,30h242c8.284,0,15-6.716,15-15S505.284,0,497,0z"/>
	</g>
</g>
<g>
	<g>
		<path d="M385.606,364.394L284.339,263.126l94.299-23.574c6.37-1.593,10.964-7.144,11.337-13.699
			c0.374-6.556-3.561-12.592-9.708-14.898l-240-90c-5.506-2.064-11.714-0.722-15.874,3.438c-4.16,4.159-5.504,10.366-3.438,15.874
			l90,240c2.205,5.879,7.82,9.733,14.04,9.733c0.285,0,0.571-0.008,0.858-0.024c6.556-0.373,12.106-4.967,13.699-11.337
			l23.574-94.299l101.267,101.267c5.857,5.858,15.355,5.859,21.213,0C391.464,379.749,391.464,370.252,385.606,364.394z
			 M251.362,240.447c-0.122,0.031-0.24,0.07-0.361,0.104c-0.152,0.042-0.305,0.084-0.456,0.131c-0.354,0.11-0.703,0.23-1.044,0.365
			c-0.136,0.054-0.27,0.114-0.405,0.171c-0.287,0.123-0.57,0.253-0.848,0.393c-0.146,0.073-0.29,0.15-0.434,0.228
			c-0.3,0.164-0.594,0.337-0.881,0.521c-0.089,0.057-0.179,0.11-0.267,0.169c-0.34,0.228-0.667,0.472-0.987,0.726
			c-0.096,0.077-0.191,0.155-0.286,0.234c-0.691,0.577-1.328,1.214-1.904,1.905c-0.079,0.094-0.156,0.188-0.232,0.284
			c-0.257,0.323-0.505,0.655-0.735,1c-0.054,0.081-0.102,0.163-0.154,0.245c-0.187,0.292-0.363,0.591-0.53,0.896
			c-0.077,0.141-0.151,0.282-0.223,0.424c-0.143,0.284-0.277,0.574-0.403,0.868c-0.052,0.121-0.106,0.24-0.154,0.362
			c-0.14,0.352-0.263,0.712-0.377,1.077c-0.046,0.147-0.086,0.294-0.127,0.442c-0.034,0.123-0.075,0.244-0.106,0.369l-18.317,73.268
			l-61.499-163.998L324.63,222.13L251.362,240.447z"/>
	</g>
</g>
<g>
</g>
<g>
</g>
<g>
</g>
<g>
</g>
<g>
</g>
<g>
</g>
<g>
</g>
<g>
</g>
<g>
</g>
<g>
</g>
<g>
</g>
<g>
</g>
<g>
</g>
<g>
</g>
<g>
</g>
</svg>
