<?xml version="1.0" encoding="iso-8859-1"?>
<!-- Generator: Adobe Illustrator 19.0.0, SVG Export Plug-In . SVG Version: 6.00 Build 0)  -->
<svg version="1.1" id="Capa_1" xmlns="http://www.w3.org/2000/svg" xmlns:xlink="http://www.w3.org/1999/xlink" x="0px" y="0px"
	 viewBox="0 0 512 512" style="enable-background:new 0 0 512 512;" xml:space="preserve">
<g>
	<g>
		<path d="M497,0H137c-8.284,0-15,6.716-15,15v225H15c-8.284,0-15,6.716-15,15v242c0,8.284,6.716,15,15,15h242
			c8.284,0,15-6.716,15-15V390h225c8.284,0,15-6.716,15-15V15C512,6.716,505.284,0,497,0z M242,482H30V270h92v105
			c0,8.284,6.716,15,15,15h105V482z M242,360h-90v-90h90V360z M482,360H272V255c0-8.284-6.716-15-15-15H152V30h330V360z"/>
	</g>
</g>
<g>
	<g>
		<path d="M451.998,74.956c-0.01-3.515-1.28-6.886-3.396-9.461c-2.987-3.64-7.373-5.495-11.607-5.495H347c-8.284,0-15,6.716-15,15
			s6.716,15,15,15h53.787l-94.394,94.394c-5.858,5.858-5.858,15.355,0,21.213C309.322,208.536,313.161,210,317,210
			s7.678-1.464,10.606-4.394L422,111.213V165c0,8.284,6.716,15,15,15s15-6.716,15-15V75C452,74.985,451.998,74.971,451.998,74.956z"
			/>
	</g>
</g>
<g>
</g>
<g>
</g>
<g>
</g>
<g>
</g>
<g>
</g>
<g>
</g>
<g>
</g>
<g>
</g>
<g>
</g>
<g>
</g>
<g>
</g>
<g>
</g>
<g>
</g>
<g>
</g>
<g>
</g>
</svg>
