<?xml version="1.0" encoding="iso-8859-1"?>
<!-- Generator: Adobe Illustrator 19.0.0, SVG Export Plug-In . SVG Version: 6.00 Build 0)  -->
<svg version="1.1" id="Capa_1" xmlns="http://www.w3.org/2000/svg" xmlns:xlink="http://www.w3.org/1999/xlink" x="0px" y="0px"
	 viewBox="0 0 512 512" style="enable-background:new 0 0 512 512;" xml:space="preserve">
<g>
	<g>
		<path d="M436,300H271v-90h75c8.284,0,15-6.716,15-15V75c0-8.284-6.716-15-15-15h-75V15c0-8.284-6.716-15-15-15s-15,6.716-15,15v45
			h-75c-8.284,0-15,6.716-15,15v120c0,8.284,6.716,15,15,15h75v90H76c-8.284,0-15,6.716-15,15v120c0,8.284,6.716,15,15,15h165v47
			c0,8.284,6.716,15,15,15s15-6.716,15-15v-47h165c8.284,0,15-6.716,15-15V315C451,306.716,444.284,300,436,300z M181,180V90h150v90
			H181z M421,420H91v-90h330V420z"/>
	</g>
</g>
<g>
</g>
<g>
</g>
<g>
</g>
<g>
</g>
<g>
</g>
<g>
</g>
<g>
</g>
<g>
</g>
<g>
</g>
<g>
</g>
<g>
</g>
<g>
</g>
<g>
</g>
<g>
</g>
<g>
</g>
</svg>
