<?xml version="1.0" encoding="iso-8859-1"?>
<!-- Generator: Adobe Illustrator 19.0.0, SVG Export Plug-In . SVG Version: 6.00 Build 0)  -->
<svg version="1.1" id="Capa_1" xmlns="http://www.w3.org/2000/svg" xmlns:xlink="http://www.w3.org/1999/xlink" x="0px" y="0px"
	 viewBox="0 0 512 512" style="enable-background:new 0 0 512 512;" xml:space="preserve">
<g>
	<g>
		<path d="M436,152h-45V15c0-8.284-6.716-15-15-15s-15,6.716-15,15v137h-45c-8.284,0-15,6.716-15,15v180c0,8.284,6.716,15,15,15h45
			v135c0,8.284,6.716,15,15,15s15-6.716,15-15V362h45c8.284,0,15-6.716,15-15V167C451,158.716,444.284,152,436,152z M421,332h-90
			V182h90V332z"/>
	</g>
</g>
<g>
	<g>
		<path d="M196,62h-45V15c0-8.284-6.716-15-15-15s-15,6.716-15,15v47H76c-8.284,0-15,6.716-15,15v360c0,8.284,6.716,15,15,15h45v45
			c0,8.284,6.716,15,15,15s15-6.716,15-15v-45h45c8.284,0,15-6.716,15-15V77C211,68.716,204.284,62,196,62z M181,422H91V92h90V422z"
			/>
	</g>
</g>
<g>
</g>
<g>
</g>
<g>
</g>
<g>
</g>
<g>
</g>
<g>
</g>
<g>
</g>
<g>
</g>
<g>
</g>
<g>
</g>
<g>
</g>
<g>
</g>
<g>
</g>
<g>
</g>
<g>
</g>
</svg>
