<?xml version="1.0" encoding="iso-8859-1"?>
<!-- Generator: Adobe Illustrator 19.0.0, SVG Export Plug-In . SVG Version: 6.00 Build 0)  -->
<svg version="1.1" id="Capa_1" xmlns="http://www.w3.org/2000/svg" xmlns:xlink="http://www.w3.org/1999/xlink" x="0px" y="0px"
	 viewBox="0 0 512 512" style="enable-background:new 0 0 512 512;" xml:space="preserve">
<g>
	<g>
		<path d="M497,121H362V76c0-8.284-6.716-15-15-15H167c-8.284,0-15,6.716-15,15v45H15c-8.284,0-15,6.716-15,15s6.716,15,15,15h137
			v45c0,8.284,6.716,15,15,15h180c8.284,0,15-6.716,15-15v-45h135c8.284,0,15-6.716,15-15S505.284,121,497,121z M332,181H182V91h150
			V181z"/>
	</g>
</g>
<g>
	<g>
		<path d="M497,361h-45v-45c0-8.284-6.716-15-15-15H77c-8.284,0-15,6.716-15,15v45H15c-8.284,0-15,6.716-15,15s6.716,15,15,15h47v45
			c0,8.284,6.716,15,15,15h360c8.284,0,15-6.716,15-15v-45h45c8.284,0,15-6.716,15-15S505.284,361,497,361z M422,421H92v-90h330V421
			z"/>
	</g>
</g>
<g>
</g>
<g>
</g>
<g>
</g>
<g>
</g>
<g>
</g>
<g>
</g>
<g>
</g>
<g>
</g>
<g>
</g>
<g>
</g>
<g>
</g>
<g>
</g>
<g>
</g>
<g>
</g>
<g>
</g>
</svg>
