<?xml version="1.0" encoding="iso-8859-1"?>
<!-- Generator: Adobe Illustrator 19.0.0, SVG Export Plug-In . SVG Version: 6.00 Build 0)  -->
<svg version="1.1" id="Capa_1" xmlns="http://www.w3.org/2000/svg" xmlns:xlink="http://www.w3.org/1999/xlink" x="0px" y="0px"
	 viewBox="0 0 512 512" style="enable-background:new 0 0 512 512;" xml:space="preserve">
<g>
	<g>
		<path d="M497,241h-45v-75c0-8.284-6.716-15-15-15H317c-8.284,0-15,6.716-15,15v75h-90V76c0-8.284-6.716-15-15-15H77
			c-8.284,0-15,6.716-15,15v165H15c-8.284,0-15,6.716-15,15s6.716,15,15,15h47v165c0,8.284,6.716,15,15,15h120
			c8.284,0,15-6.716,15-15V271h90v75c0,8.284,6.716,15,15,15h120c8.284,0,15-6.716,15-15v-75h45c8.284,0,15-6.716,15-15
			S505.284,241,497,241z M182,421H92V91h90V421z M422,331h-90V181h90V331z"/>
	</g>
</g>
<g>
</g>
<g>
</g>
<g>
</g>
<g>
</g>
<g>
</g>
<g>
</g>
<g>
</g>
<g>
</g>
<g>
</g>
<g>
</g>
<g>
</g>
<g>
</g>
<g>
</g>
<g>
</g>
<g>
</g>
</svg>
