<?xml version="1.0" encoding="iso-8859-1"?>
<!-- Generator: Adobe Illustrator 19.0.0, SVG Export Plug-In . SVG Version: 6.00 Build 0)  -->
<svg version="1.1" id="Capa_1" xmlns="http://www.w3.org/2000/svg" xmlns:xlink="http://www.w3.org/1999/xlink" x="0px" y="0px"
	 viewBox="0 0 512 512" style="enable-background:new 0 0 512 512;" xml:space="preserve">
<g>
	<g>
		<path d="M196,0c-8.284,0-15,6.716-15,15v137H76c-8.284,0-15,6.716-15,15v180c0,8.284,6.716,15,15,15h105v135
			c0,8.284,6.716,15,15,15s15-6.716,15-15V15C211,6.716,204.284,0,196,0z M181,332H91V182h90V332z"/>
	</g>
</g>
<g>
	<g>
		<path d="M436,0c-8.284,0-15,6.716-15,15v47H316c-8.284,0-15,6.716-15,15v360c0,8.284,6.716,15,15,15h105v45
			c0,8.284,6.716,15,15,15s15-6.716,15-15V15C451,6.716,444.284,0,436,0z M421,422h-90V92h90V422z"/>
	</g>
</g>
<g>
</g>
<g>
</g>
<g>
</g>
<g>
</g>
<g>
</g>
<g>
</g>
<g>
</g>
<g>
</g>
<g>
</g>
<g>
</g>
<g>
</g>
<g>
</g>
<g>
</g>
<g>
</g>
<g>
</g>
</svg>
