<?xml version="1.0" encoding="iso-8859-1"?>
<!-- Generator: Adobe Illustrator 19.0.0, SVG Export Plug-In . SVG Version: 6.00 Build 0)  -->
<svg version="1.1" id="Capa_1" xmlns="http://www.w3.org/2000/svg" xmlns:xlink="http://www.w3.org/1999/xlink" x="0px" y="0px"
	 viewBox="0 0 512 512" style="enable-background:new 0 0 512 512;" xml:space="preserve">
<g>
	<g>
		<path d="M497,451H15c-8.284,0-15,6.716-15,15s6.716,15,15,15h482c8.284,0,15-6.716,15-15S505.284,451,497,451z"/>
	</g>
</g>
<g>
	<g>
		<path d="M437,211H317c-8.284,0-15,6.716-15,15v180c0,8.284,6.716,15,15,15h120c8.284,0,15-6.716,15-15V226
			C452,217.716,445.284,211,437,211z M422,391h-90V241h90V391z"/>
	</g>
</g>
<g>
	<g>
		<path d="M197,31H77c-8.284,0-15,6.716-15,15v360c0,8.284,6.716,15,15,15h120c8.284,0,15-6.716,15-15V46
			C212,37.716,205.284,31,197,31z M182,391H92V61h90V391z"/>
	</g>
</g>
<g>
</g>
<g>
</g>
<g>
</g>
<g>
</g>
<g>
</g>
<g>
</g>
<g>
</g>
<g>
</g>
<g>
</g>
<g>
</g>
<g>
</g>
<g>
</g>
<g>
</g>
<g>
</g>
<g>
</g>
</svg>
