<?xml version="1.0" encoding="iso-8859-1"?>
<!-- Generator: Adobe Illustrator 19.0.0, SVG Export Plug-In . SVG Version: 6.00 Build 0)  -->
<svg version="1.1" id="Capa_1" xmlns="http://www.w3.org/2000/svg" xmlns:xlink="http://www.w3.org/1999/xlink" x="0px" y="0px"
	 viewBox="0 0 512 512" style="enable-background:new 0 0 512 512;" xml:space="preserve">
<g>
	<g>
		<path d="M377,0h-30c-8.284,0-15,6.716-15,15s6.716,15,15,15h15v15c0,8.284,6.716,15,15,15s15-6.716,15-15V15
			C392,6.716,385.284,0,377,0z"/>
	</g>
</g>
<g>
	<g>
		<path d="M287,0h-60c-8.284,0-15,6.716-15,15s6.716,15,15,15h60c8.284,0,15-6.716,15-15S295.284,0,287,0z"/>
	</g>
</g>
<g>
	<g>
		<path d="M167,0h-60c-8.284,0-15,6.716-15,15s6.716,15,15,15h60c8.284,0,15-6.716,15-15S175.284,0,167,0z"/>
	</g>
</g>
<g>
	<g>
		<path d="M407,482h-60c-8.284,0-15,6.716-15,15s6.716,15,15,15h60c8.284,0,15-6.716,15-15S415.284,482,407,482z"/>
	</g>
</g>
<g>
	<g>
		<path d="M287,482h-60c-8.284,0-15,6.716-15,15s6.716,15,15,15h60c8.284,0,15-6.716,15-15S295.284,482,287,482z"/>
	</g>
</g>
<g>
	<g>
		<path d="M45,0H15C6.716,0,0,6.716,0,15v30c0,8.284,6.716,15,15,15s15-6.716,15-15V30h15c8.284,0,15-6.716,15-15S53.284,0,45,0z"/>
	</g>
</g>
<g>
	<g>
		<path d="M15,90c-8.284,0-15,6.716-15,15v62c0,8.284,6.716,15,15,15s15-6.716,15-15v-62C30,96.716,23.284,90,15,90z"/>
	</g>
</g>
<g>
	<g>
		<path d="M15,212c-8.284,0-15,6.716-15,15v60c0,8.284,6.716,15,15,15s15-6.716,15-15v-60C30,218.716,23.284,212,15,212z"/>
	</g>
</g>
<g>
	<g>
		<path d="M497,212c-8.284,0-15,6.716-15,15v60c0,8.284,6.716,15,15,15s15-6.716,15-15v-60C512,218.716,505.284,212,497,212z"/>
	</g>
</g>
<g>
	<g>
		<path d="M497,332c-8.284,0-15,6.716-15,15v60c0,8.284,6.716,15,15,15s15-6.716,15-15v-60C512,338.716,505.284,332,497,332z"/>
	</g>
</g>
<g>
	<g>
		<path d="M45,362H30v-15c0-8.284-6.716-15-15-15s-15,6.716-15,15v30c0,8.284,6.716,15,15,15h30c8.284,0,15-6.716,15-15
			S53.284,362,45,362z"/>
	</g>
</g>
<g>
	<g>
		<path d="M167,482h-15v-15c0-8.284-6.716-15-15-15s-15,6.716-15,15v30c0,8.284,6.716,15,15,15h30c8.284,0,15-6.716,15-15
			S175.284,482,167,482z"/>
	</g>
</g>
<g>
	<g>
		<path d="M497,122h-30c-8.284,0-15,6.716-15,15s6.716,15,15,15h15v15c0,8.284,6.716,15,15,15s15-6.716,15-15v-30
			C512,128.716,505.284,122,497,122z"/>
	</g>
</g>
<g>
	<g>
		<path d="M497,452c-8.284,0-15,6.716-15,15v15h-15c-8.284,0-15,6.716-15,15s6.716,15,15,15h30c8.284,0,15-6.716,15-15v-30
			C512,458.716,505.284,452,497,452z"/>
	</g>
</g>
<g>
	<g>
		<path d="M407,122h-15v-17c0-8.284-6.716-15-15-15s-15,6.716-15,15v17H137c-8.284,0-15,6.716-15,15v225h-15
			c-8.284,0-15,6.716-15,15s6.716,15,15,15h15v15c0,8.284,6.716,15,15,15s15-6.716,15-15v-15h225c8.284,0,15-6.716,15-15V152h15
			c8.284,0,15-6.716,15-15S415.284,122,407,122z M362,362H152V152h210V362z"/>
	</g>
</g>
<g>
</g>
<g>
</g>
<g>
</g>
<g>
</g>
<g>
</g>
<g>
</g>
<g>
</g>
<g>
</g>
<g>
</g>
<g>
</g>
<g>
</g>
<g>
</g>
<g>
</g>
<g>
</g>
<g>
</g>
</svg>
