<?xml version="1.0" encoding="iso-8859-1"?>
<!-- Generator: Adobe Illustrator 19.0.0, SVG Export Plug-In . SVG Version: 6.00 Build 0)  -->
<svg version="1.1" id="Capa_1" xmlns="http://www.w3.org/2000/svg" xmlns:xlink="http://www.w3.org/1999/xlink" x="0px" y="0px"
	 viewBox="0 0 512 512" style="enable-background:new 0 0 512 512;" xml:space="preserve">
<g>
	<g>
		<path d="M507.603,131.67L380.325,4.393c-5.857-5.858-15.355-5.858-21.213,0l-65.639,65.639c-5.858,5.858-5.858,15.355,0,21.213
			l6.497,6.497l-171.677,85.839c-3.286,1.643-5.854,4.435-7.219,7.846C106.053,228.979,16.101,453.861,1.076,491.422
			c-2.187,5.469-0.962,11.895,3.321,16.177c2.878,2.88,6.728,4.394,10.609,4.394c4.31,0-5.164,3.199,305.563-121.071
			c3.41-1.364,6.202-3.933,7.845-7.219l85.839-171.677l6.498,6.498c2.929,2.929,6.768,4.394,10.606,4.394
			c3.838,0,7.678-1.464,10.606-4.394l65.639-65.639C513.461,147.025,513.461,137.528,507.603,131.67z M304.133,365.185
			l-226.849,90.74l128.328-128.328c5.875,2.817,12.451,4.398,19.389,4.398c24.813,0,44.999-20.187,44.999-44.999
			c0-24.813-20.187-44.999-44.999-44.999s-44.999,20.187-44.999,44.999c0,6.938,1.581,13.515,4.398,19.389L56.071,434.712
			l90.74-226.85l175.521-87.76l69.562,69.562L304.133,365.185z M210.001,286.995c0-8.271,6.729-15,15-15s15,6.729,15,15
			c0,8.271-6.729,15-15,15S210.001,295.266,210.001,286.995z M431.357,186.703l-10.786-10.786c-0.015-0.015-0.029-0.03-0.044-0.044
			L336.12,91.466c-0.01-0.011-0.021-0.021-0.031-0.031l-10.796-10.797l44.426-44.425l106.064,106.064L431.357,186.703z"/>
	</g>
</g>
<g>
	<g>
		<path d="M135.002,61.999H15.004c-8.284,0-15,6.716-15,15s6.716,15,15,15h119.998c8.284,0,15-6.716,15-15
			S143.286,61.999,135.002,61.999z"/>
	</g>
</g>
<g>
</g>
<g>
</g>
<g>
</g>
<g>
</g>
<g>
</g>
<g>
</g>
<g>
</g>
<g>
</g>
<g>
</g>
<g>
</g>
<g>
</g>
<g>
</g>
<g>
</g>
<g>
</g>
<g>
</g>
</svg>
