<?xml version="1.0" encoding="iso-8859-1"?>
<!-- Generator: Adobe Illustrator 19.0.0, SVG Export Plug-In . SVG Version: 6.00 Build 0)  -->
<svg version="1.1" id="Capa_1" xmlns="http://www.w3.org/2000/svg" xmlns:xlink="http://www.w3.org/1999/xlink" x="0px" y="0px"
	 viewBox="0 0 512.001 512.001" style="enable-background:new 0 0 512.001 512.001;" xml:space="preserve">
<g>
	<g>
		<path d="M507.607,184.394l-180-180c-5.857-5.858-15.355-5.858-21.213,0l-302,302c-5.858,5.858-5.858,15.355,0,21.213l180,180
			c2.929,2.929,6.768,4.393,10.607,4.393s7.678-1.464,10.606-4.394l302-302C513.466,199.749,513.466,190.252,507.607,184.394z
			 M195.001,475.787L36.214,317l68.787-68.787L263.788,407L195.001,475.787z M285.001,385.787L126.214,227L317.001,36.214
			L475.788,195L285.001,385.787z"/>
	</g>
</g>
<g>
</g>
<g>
</g>
<g>
</g>
<g>
</g>
<g>
</g>
<g>
</g>
<g>
</g>
<g>
</g>
<g>
</g>
<g>
</g>
<g>
</g>
<g>
</g>
<g>
</g>
<g>
</g>
<g>
</g>
</svg>
