<?xml version="1.0" encoding="iso-8859-1"?>
<!-- Generator: Adobe Illustrator 19.0.0, SVG Export Plug-In . SVG Version: 6.00 Build 0)  -->
<svg version="1.1" id="Capa_1" xmlns="http://www.w3.org/2000/svg" xmlns:xlink="http://www.w3.org/1999/xlink" x="0px" y="0px"
	 viewBox="0 0 512 512" style="enable-background:new 0 0 512 512;" xml:space="preserve">
<g>
	<g>
		<path d="M497,90c8.284,0,15-6.716,15-15V15c0-8.284-6.716-15-15-15h-60c-8.284,0-15,6.716-15,15v15H300V15c0-8.284-6.716-15-15-15
			h-60c-8.284,0-15,6.716-15,15v15H90V15c0-8.284-6.716-15-15-15H15C6.716,0,0,6.716,0,15v60c0,8.284,6.716,15,15,15h15v122H15
			c-8.284,0-15,6.716-15,15v60c0,8.284,6.716,15,15,15h15v120H15c-8.284,0-15,6.716-15,15v60c0,8.284,6.716,15,15,15h60
			c8.284,0,15-6.716,15-15v-15h120v15c0,8.284,6.716,15,15,15h60c8.284,0,15-6.716,15-15v-15h122v15c0,8.284,6.716,15,15,15h60
			c8.284,0,15-6.716,15-15v-60c0-8.284-6.716-15-15-15h-15V302h15c8.284,0,15-6.716,15-15v-60c0-8.284-6.716-15-15-15h-15V90H497z
			 M240,30h30v30h-30V30z M30,30h30v30H30V30z M30,242h30v30H30V242z M60,482H30v-30h30V482z M270,482h-30v-30h30V482z M422,437v15
			H300v-15c0-8.284-6.716-15-15-15h-60c-8.284,0-15,6.716-15,15v15H90v-15c0-8.284-6.716-15-15-15H60V302h15c8.284,0,15-6.716,15-15
			v-60c0-8.284-6.716-15-15-15H60V90h15c8.284,0,15-6.716,15-15V60h120v15c0,8.284,6.716,15,15,15h60c8.284,0,15-6.716,15-15V60h122
			v15c0,8.284,6.716,15,15,15h15v122h-15c-8.284,0-15,6.716-15,15v60c0,8.284,6.716,15,15,15h15v120h-15
			C428.716,422,422,428.716,422,437z M482,482h-30v-30h30V482z M482,272h-30v-30h30V272z M452,60V30h30v30H452z"/>
	</g>
</g>
<g>
	<g>
		<path d="M315,182H195c-8.284,0-15,6.716-15,15v120c0,8.284,6.716,15,15,15h120c8.284,0,15-6.716,15-15V197
			C330,188.716,323.284,182,315,182z M300,302h-90v-90h90V302z"/>
	</g>
</g>
<g>
</g>
<g>
</g>
<g>
</g>
<g>
</g>
<g>
</g>
<g>
</g>
<g>
</g>
<g>
</g>
<g>
</g>
<g>
</g>
<g>
</g>
<g>
</g>
<g>
</g>
<g>
</g>
<g>
</g>
</svg>
