<?xml version="1.0" encoding="iso-8859-1"?>
<!-- Generator: Adobe Illustrator 19.0.0, SVG Export Plug-In . SVG Version: 6.00 Build 0)  -->
<svg version="1.1" id="Capa_1" xmlns="http://www.w3.org/2000/svg" xmlns:xlink="http://www.w3.org/1999/xlink" x="0px" y="0px"
	 viewBox="0 0 512 512" style="enable-background:new 0 0 512 512;" xml:space="preserve">
<g>
	<g>
		<path d="M497,331h-15.502c-3.271-49.068-22.523-95.825-55.042-133.023c-16.486-18.859-35.848-34.678-57.179-46.977h55.303
			c6.192,17.458,22.865,30,42.42,30c24.813,0,45-20.187,45-45s-20.187-45-45-45c-19.555,0-36.228,12.542-42.42,30H302v-15
			c0-8.284-6.716-15-15-15h-60c-8.284,0-15,6.716-15,15v15H87.42C81.228,103.542,64.555,91,45,91c-24.813,0-45,20.187-45,45
			s20.187,45,45,45c19.555,0,36.228-12.542,42.42-30h57.303c-21.33,12.299-40.693,28.118-57.179,46.977
			C55.025,235.175,35.774,281.932,32.502,331H15c-8.284,0-15,6.716-15,15v60c0,8.284,6.716,15,15,15h62c8.284,0,15-6.716,15-15v-60
			c0-8.284-6.716-15-15-15H62.594C69.138,246.876,130.192,175.617,212,156.227V166c0,8.284,6.716,15,15,15h60
			c8.284,0,15-6.716,15-15v-9.773c81.808,19.39,142.862,90.649,149.406,174.773H437c-8.284,0-15,6.716-15,15v60
			c0,8.284,6.716,15,15,15h60c8.284,0,15-6.716,15-15v-60C512,337.716,505.284,331,497,331z M467,121c8.271,0,15,6.729,15,15
			s-6.729,15-15,15s-15-6.729-15-15S458.729,121,467,121z M45,151c-8.271,0-15-6.729-15-15s6.729-15,15-15s15,6.729,15,15
			S53.271,151,45,151z M62,391H30v-30h32V391z M272,151h-30v-30h30V151z M482,391h-30v-30h30V391z"/>
	</g>
</g>
<g>
</g>
<g>
</g>
<g>
</g>
<g>
</g>
<g>
</g>
<g>
</g>
<g>
</g>
<g>
</g>
<g>
</g>
<g>
</g>
<g>
</g>
<g>
</g>
<g>
</g>
<g>
</g>
<g>
</g>
</svg>
