<?xml version="1.0" encoding="iso-8859-1"?>
<!-- Generator: Adobe Illustrator 19.0.0, SVG Export Plug-In . SVG Version: 6.00 Build 0)  -->
<svg version="1.1" id="Capa_1" xmlns="http://www.w3.org/2000/svg" xmlns:xlink="http://www.w3.org/1999/xlink" x="0px" y="0px"
	 viewBox="0 0 512 512" style="enable-background:new 0 0 512 512;" xml:space="preserve">
<g>
	<g>
		<path d="M497,331h-52.974L302,160.569V106c0-8.284-6.716-15-15-15h-60c-8.284,0-15,6.716-15,15v54.569L69.974,331H15
			c-8.284,0-15,6.716-15,15v60c0,8.284,6.716,15,15,15h62c8.284,0,15-6.716,15-15v-54.569L234.026,181h45.949L422,351.431V406
			c0,8.284,6.716,15,15,15h60c8.284,0,15-6.716,15-15v-60C512,337.716,505.284,331,497,331z M62,391H30v-30h32V391z M272,151h-30
			v-30h30V151z M482,391h-30v-30h30V391z"/>
	</g>
</g>
<g>
</g>
<g>
</g>
<g>
</g>
<g>
</g>
<g>
</g>
<g>
</g>
<g>
</g>
<g>
</g>
<g>
</g>
<g>
</g>
<g>
</g>
<g>
</g>
<g>
</g>
<g>
</g>
<g>
</g>
</svg>
