<?xml version="1.0" encoding="iso-8859-1"?>
<!-- Generator: Adobe Illustrator 19.0.0, SVG Export Plug-In . SVG Version: 6.00 Build 0)  -->
<svg version="1.1" id="Capa_1" xmlns="http://www.w3.org/2000/svg" xmlns:xlink="http://www.w3.org/1999/xlink" x="0px" y="0px"
	 viewBox="0 0 512 512" style="enable-background:new 0 0 512 512;" xml:space="preserve">
<g>
	<g>
		<path d="M105,180H75c-8.284,0-15,6.716-15,15s6.716,15,15,15h30c8.284,0,15-6.716,15-15S113.284,180,105,180z"/>
	</g>
</g>
<g>
	<g>
		<path d="M195,180h-30c-8.284,0-15,6.716-15,15s6.716,15,15,15h30c8.284,0,15-6.716,15-15S203.284,180,195,180z"/>
	</g>
</g>
<g>
	<g>
		<path d="M345,180h-30c-8.284,0-15,6.716-15,15s6.716,15,15,15h30c8.284,0,15-6.716,15-15S353.284,180,345,180z"/>
	</g>
</g>
<g>
	<g>
		<path d="M435,180h-30c-8.284,0-15,6.716-15,15s6.716,15,15,15h30c8.284,0,15-6.716,15-15S443.284,180,435,180z"/>
	</g>
</g>
<g>
	<g>
		<path d="M507.606,486.394l-73.267-73.267l64.298-16.074c6.371-1.593,10.965-7.144,11.338-13.699
			c0.373-6.555-3.561-12.592-9.709-14.898l-61.274-22.978c17.896-14.77,33.142-32.666,44.82-52.81
			C500.944,263.115,510,229.342,510,195C510,87.477,422.523,0,315,0c-55.709,0-107.985,23.428-144.992,64.613
			C158.838,61.611,147.104,60,135,60C60.561,60,0,120.561,0,195c0,74.439,60.561,135,135,135c12.104,0,23.838-1.611,35.008-4.613
			C207.015,366.572,259.291,390,315,390c3.985,0,7.984-0.122,11.969-0.363l41.486,110.63c2.205,5.879,7.82,9.734,14.039,9.733
			c0.285,0,0.572-0.008,0.858-0.024c6.557-0.373,12.107-4.967,13.699-11.337l16.075-64.299l73.267,73.267
			C489.322,510.536,493.161,512,497,512s7.678-1.464,10.606-4.394C513.465,501.749,513.465,492.252,507.606,486.394z M135,300
			c-57.897,0-105-47.103-105-105c0-57.897,47.103-105,105-105c57.897,0,105,47.103,105,105C240,252.897,192.897,300,135,300z
			 M320.267,300.955c-5.506-2.064-11.713-0.72-15.873,3.438c-4.159,4.159-5.504,10.366-3.438,15.873l14.895,39.721
			C315.567,359.989,315.283,360,315,360c-43.41,0-84.356-16.819-115.023-46.699C241.682,290.303,270,245.899,270,195
			s-28.318-95.303-70.023-118.301C230.644,46.819,271.59,30,315,30c90.981,0,165,74.019,165,165
			c0,55.376-28.363,107.575-74.453,137.935L320.267,300.955z M401.362,390.448c-0.121,0.03-0.239,0.07-0.358,0.103
			c-0.154,0.042-0.308,0.084-0.46,0.132c-0.351,0.109-0.698,0.229-1.037,0.363c-0.139,0.055-0.275,0.116-0.413,0.174
			c-0.286,0.123-0.568,0.253-0.844,0.392c-0.146,0.074-0.29,0.149-0.434,0.228c-0.302,0.165-0.597,0.339-0.885,0.523
			c-0.086,0.055-0.172,0.106-0.257,0.163c-0.343,0.229-0.673,0.476-0.995,0.731c-0.095,0.076-0.188,0.152-0.282,0.23
			c-0.692,0.578-1.331,1.216-1.909,1.909c-0.077,0.093-0.154,0.186-0.229,0.279c-0.258,0.325-0.506,0.657-0.737,1.002
			c-0.054,0.081-0.103,0.164-0.155,0.246c-0.186,0.291-0.361,0.588-0.527,0.892c-0.078,0.143-0.154,0.287-0.227,0.432
			c-0.139,0.276-0.269,0.558-0.392,0.844c-0.06,0.14-0.122,0.279-0.177,0.42c-0.132,0.336-0.251,0.68-0.36,1.028
			c-0.048,0.156-0.091,0.313-0.135,0.47c-0.032,0.118-0.071,0.233-0.101,0.352l-10.817,43.269l-38.999-103.998l103.997,38.999
			L401.362,390.448z"/>
	</g>
</g>
<g>
</g>
<g>
</g>
<g>
</g>
<g>
</g>
<g>
</g>
<g>
</g>
<g>
</g>
<g>
</g>
<g>
</g>
<g>
</g>
<g>
</g>
<g>
</g>
<g>
</g>
<g>
</g>
<g>
</g>
</svg>
