<?xml version="1.0" encoding="iso-8859-1"?>
<!-- Generator: Adobe Illustrator 19.0.0, SVG Export Plug-In . SVG Version: 6.00 Build 0)  -->
<svg version="1.1" id="Capa_1" xmlns="http://www.w3.org/2000/svg" xmlns:xlink="http://www.w3.org/1999/xlink" x="0px" y="0px"
	 viewBox="0 0 512 512" style="enable-background:new 0 0 512 512;" xml:space="preserve">
<g>
	<g>
		<path d="M510.023,248.558l-120-210C387.353,33.884,382.383,31,377,31H135c-5.383,0-10.352,2.885-13.023,7.558l-120,210
			c-2.636,4.611-2.636,10.272,0,14.884l120,210c2.67,4.674,7.64,7.558,13.023,7.558h242c5.383,0,10.353-2.884,13.023-7.558l120-210
			C512.659,258.831,512.659,253.17,510.023,248.558z M368.295,451h-224.59L32.277,256L143.705,61h224.59l111.429,195L368.295,451z"
			/>
	</g>
</g>
<g>
</g>
<g>
</g>
<g>
</g>
<g>
</g>
<g>
</g>
<g>
</g>
<g>
</g>
<g>
</g>
<g>
</g>
<g>
</g>
<g>
</g>
<g>
</g>
<g>
</g>
<g>
</g>
<g>
</g>
</svg>
