<?xml version="1.0" encoding="iso-8859-1"?>
<!-- Generator: Adobe Illustrator 19.0.0, SVG Export Plug-In . SVG Version: 6.00 Build 0)  -->
<svg version="1.1" id="Capa_1" xmlns="http://www.w3.org/2000/svg" xmlns:xlink="http://www.w3.org/1999/xlink" x="0px" y="0px"
	 viewBox="0 0 512 512" style="enable-background:new 0 0 512 512;" xml:space="preserve">
<g>
	<g>
		<path d="M497,0h-62c-8.284,0-15,6.716-15,15v19.331c-99.015,10.216-191.806,54.292-262.592,125.078S42.546,322.985,32.33,422H15
			c-8.284,0-15,6.716-15,15v60c0,8.284,6.716,15,15,15h60c8.284,0,15-6.716,15-15v-60c0-8.284-6.716-15-15-15H62.497
			C83.26,235.09,233.09,85.261,420,64.497V77c0,8.284,6.716,15,15,15h62c8.284,0,15-6.716,15-15V15C512,6.716,505.284,0,497,0z
			 M60,482H30v-30h16.05c0.007,0,0.014,0.001,0.021,0.001c0.005,0,0.01-0.001,0.015-0.001H60V482z M482,62h-32V30h32V62z"/>
	</g>
</g>
<g>
</g>
<g>
</g>
<g>
</g>
<g>
</g>
<g>
</g>
<g>
</g>
<g>
</g>
<g>
</g>
<g>
</g>
<g>
</g>
<g>
</g>
<g>
</g>
<g>
</g>
<g>
</g>
<g>
</g>
</svg>
