<?xml version="1.0" encoding="iso-8859-1"?>
<!-- Generator: Adobe Illustrator 19.0.0, SVG Export Plug-In . SVG Version: 6.00 Build 0)  -->
<svg version="1.1" id="Capa_1" xmlns="http://www.w3.org/2000/svg" xmlns:xlink="http://www.w3.org/1999/xlink" x="0px" y="0px"
	 viewBox="0 0 512 512" style="enable-background:new 0 0 512 512;" xml:space="preserve">
<g>
	<g>
		<path d="M497,466H60V316h437c8.284,0,15-6.716,15-15s-6.716-15-15-15H45c-8.284,0-15,6.716-15,15v180c0,8.284,6.716,15,15,15h452
			c8.284,0,15-6.716,15-15S505.284,466,497,466z"/>
	</g>
</g>
<g>
	<g>
		<path d="M497,196H105c-41.355,0-75-33.645-75-75s33.645-75,75-75h392c8.284,0,15-6.716,15-15s-6.716-15-15-15H105
			C47.103,16,0,63.103,0,121s47.103,105,105,105h392c8.284,0,15-6.716,15-15S505.284,196,497,196z"/>
	</g>
</g>
<g>
	<g>
		<path d="M497,106H180V91c0-8.284-6.716-15-15-15h-60c-8.284,0-15,6.716-15,15v60c0,8.284,6.716,15,15,15h60
			c8.284,0,15-6.716,15-15v-15h317c8.284,0,15-6.716,15-15S505.284,106,497,106z M150,136h-30v-30h30V136z"/>
	</g>
</g>
<g>
	<g>
		<path d="M497,376H180v-15c0-8.284-6.716-15-15-15h-60c-8.284,0-15,6.716-15,15v60c0,8.284,6.716,15,15,15h60
			c8.284,0,15-6.716,15-15v-15h317c8.284,0,15-6.716,15-15S505.284,376,497,376z M150,406h-30v-30h30V406z"/>
	</g>
</g>
<g>
</g>
<g>
</g>
<g>
</g>
<g>
</g>
<g>
</g>
<g>
</g>
<g>
</g>
<g>
</g>
<g>
</g>
<g>
</g>
<g>
</g>
<g>
</g>
<g>
</g>
<g>
</g>
<g>
</g>
</svg>
