<?xml version="1.0" encoding="iso-8859-1"?>
<!-- Generator: Adobe Illustrator 19.0.0, SVG Export Plug-In . SVG Version: 6.00 Build 0)  -->
<svg version="1.1" id="Capa_1" xmlns="http://www.w3.org/2000/svg" xmlns:xlink="http://www.w3.org/1999/xlink" x="0px" y="0px"
	 viewBox="0 0 511.999 511.999" style="enable-background:new 0 0 511.999 511.999;" xml:space="preserve">
<g>
	<g>
		<path d="M510.833,254.593c-6.852-61.669-37.309-116.978-85.76-155.739C376.621,60.093,315.972,42.52,254.307,49.371
			c-38.408,4.267-73.484,16.054-104.255,35.032c-29.301,18.071-54.098,42.255-73.704,71.876
			c-35.146,53.104-51.501,121.084-46.725,192.957H14.998C6.715,349.236,0,355.951,0,364.234v59.991
			c0,8.283,6.715,14.998,14.998,14.998h60.991c8.283,0,14.998-6.715,14.998-14.998v-59.991c0-8.283-6.715-14.998-14.998-14.998
			H59.666C48.815,203.695,128.8,93.497,257.618,79.184C368.48,66.868,468.702,147.04,481.022,257.906
			c9.672,87.049-53.278,165.738-140.327,175.41c-68.006,7.553-129.461-41.618-137.016-109.612
			c-5.861-52.753,32.287-100.439,85.04-106.3c19.656-2.184,38.97,3.416,54.405,15.765c15.436,12.349,25.139,29.97,27.322,49.618
			c1.658,14.922-2.594,29.596-11.972,41.319c-9.379,11.723-22.762,19.092-37.682,20.751c-11.136,1.238-22.097-1.937-30.849-8.94
			c-8.753-7.002-14.255-16.995-15.493-28.135c-0.902-8.117,1.411-16.098,6.512-22.475c5.102-6.377,12.381-10.385,20.497-11.287
			c8.232-0.915,14.165-8.33,13.25-16.563c-0.915-8.232-8.323-14.166-16.562-13.25c-16.08,1.787-30.502,9.728-40.607,22.361
			c-10.107,12.633-14.688,28.446-12.901,44.525c2.123,19.104,11.558,36.238,26.567,48.245c15.01,12.008,33.797,17.451,52.899,15.329
			c22.886-2.543,43.41-13.845,57.794-31.825c14.384-17.98,20.904-40.485,18.361-63.369c-3.068-27.61-16.704-52.373-38.395-69.728
			c-21.693-17.354-48.847-25.223-76.456-22.154c-69.191,7.688-119.227,70.234-111.54,139.425
			c8.743,78.682,75.613,137.066,153.012,137.063c5.657,0,11.377-0.313,17.128-0.952
			C447.493,451.629,522.331,358.081,510.833,254.593z M60.991,379.232v29.996H29.996v-29.996H60.991z"/>
	</g>
</g>
<g>
</g>
<g>
</g>
<g>
</g>
<g>
</g>
<g>
</g>
<g>
</g>
<g>
</g>
<g>
</g>
<g>
</g>
<g>
</g>
<g>
</g>
<g>
</g>
<g>
</g>
<g>
</g>
<g>
</g>
</svg>
