<?xml version="1.0" encoding="iso-8859-1"?>
<!-- Generator: Adobe Illustrator 19.0.0, SVG Export Plug-In . SVG Version: 6.00 Build 0)  -->
<svg version="1.1" id="Capa_1" xmlns="http://www.w3.org/2000/svg" xmlns:xlink="http://www.w3.org/1999/xlink" x="0px" y="0px"
	 viewBox="0 0 512 512" style="enable-background:new 0 0 512 512;" xml:space="preserve">
<g>
	<g>
		<path d="M481.429,90H497c8.284,0,15-6.716,15-15V15c0-8.284-6.716-15-15-15h-60c-8.284,0-15,6.716-15,15v60
			c0,8.284,6.716,15,15,15h14.311C444.154,169.035,381.035,232.154,302,239.311V225c0-8.284-6.716-15-15-15h-60
			c-8.284,0-15,6.716-15,15v15H87.42c-6.192-17.458-22.865-30-42.42-30c-24.813,0-45,20.187-45,45s20.187,45,45,45
			c19.555,0,36.228-12.542,42.42-30h35.775c-50.768,32.053-85.798,86.865-90.623,150H17c-8.284,0-15,6.716-15,15v62
			c0,8.284,6.716,15,15,15h60c8.284,0,15-6.716,15-15v-62c0-8.284-6.716-15-15-15H62.689
			C69.846,340.965,132.965,277.846,212,270.689V285c0,8.284,6.716,15,15,15h60c8.284,0,15-6.716,15-15v-15h122.58
			c6.192,17.458,22.865,30,42.42,30c24.813,0,45-20.187,45-45s-20.187-45-45-45c-19.555,0-36.228,12.542-42.42,30h-33.775
			C441.573,207.947,476.603,153.135,481.429,90z M452,30h30v30h-30V30z M45,270c-8.271,0-15-6.729-15-15s6.729-15,15-15
			s15,6.729,15,15S53.271,270,45,270z M62,482H32v-32h30V482z M272,270h-30v-30h30V270z M467,240c8.271,0,15,6.729,15,15
			s-6.729,15-15,15s-15-6.729-15-15S458.729,240,467,240z"/>
	</g>
</g>
<g>
</g>
<g>
</g>
<g>
</g>
<g>
</g>
<g>
</g>
<g>
</g>
<g>
</g>
<g>
</g>
<g>
</g>
<g>
</g>
<g>
</g>
<g>
</g>
<g>
</g>
<g>
</g>
<g>
</g>
</svg>
