<?xml version="1.0" encoding="iso-8859-1"?>
<!-- Generator: Adobe Illustrator 18.0.0, SVG Export Plug-In . SVG Version: 6.00 Build 0)  -->
<!DOCTYPE svg PUBLIC "-//W3C//DTD SVG 1.1//EN" "http://www.w3.org/Graphics/SVG/1.1/DTD/svg11.dtd">
<svg version="1.1" id="Capa_1" xmlns="http://www.w3.org/2000/svg" xmlns:xlink="http://www.w3.org/1999/xlink" x="0px" y="0px"
	 viewBox="0 0 60 60" style="enable-background:new 0 0 60 60;" xml:space="preserve">
<g>
	<path d="M47.843,44.41c0.014-0.054,0.02-0.11,0.032-0.165c0.015-0.065,0.026-0.129,0.038-0.195C47.965,43.767,48,43.481,48,43.19
		v-1.034v-4.022v-2.011V32.1v-2.011v-4.022v-2.011v-4.022v-2.011V14c0.553,0,1-0.448,1-1s-0.447-1-1-1V4.81
		C48,2.158,45.843,0,43.19,0H4.81C2.157,0,0,2.158,0,4.81v38.38C0,45.842,2.157,48,4.81,48H12c0,0.552,0.447,1,1,1s1-0.448,1-1
		h4.033h2.011h4.022h2.012H30.1h2.012h4.021h2.012h4.022h1.023c0.292,0,0.579-0.036,0.864-0.087
		c0.064-0.012,0.128-0.023,0.191-0.037c0.059-0.013,0.119-0.019,0.178-0.035c0.042-0.011,0.073-0.039,0.112-0.055
		c1.562-0.459,2.785-1.679,3.247-3.24C47.802,44.499,47.83,44.459,47.843,44.41z M43.844,45.915C43.631,45.966,43.413,46,43.19,46
		h-1.023h-4.022h-2.012h-4.021H30.1h-4.021h-2.012h-4.022h-2.011H14h-2H4.81C3.261,46,2,44.739,2,43.19V4.81C2,3.261,3.261,2,4.81,2
		H43.19C44.739,2,46,3.261,46,4.81V12v2v4.022v2.011v4.022v2.011v4.022V32.1v4.022v2.011v4.022v1.034
		c0,0.22-0.032,0.437-0.083,0.647C45.673,44.863,44.869,45.669,43.844,45.915z"/>
	<path d="M38.69,58h-1.947c-0.553,0-1,0.448-1,1s0.447,1,1,1h1.947c0.553,0,1-0.448,1-1S39.243,58,38.69,58z"/>
	<path d="M44.533,58h-1.947c-0.553,0-1,0.448-1,1s0.447,1,1,1h1.947c0.553,0,1-0.448,1-1S45.086,58,44.533,58z"/>
	<path d="M21.161,58h-1.947c-0.553,0-1,0.448-1,1s0.447,1,1,1h1.947c0.553,0,1-0.448,1-1S21.714,58,21.161,58z"/>
	<path d="M14,53.843v-1.948c0-0.552-0.447-1-1-1s-1,0.448-1,1v1.948c0,0.552,0.447,1,1,1S14,54.396,14,53.843z"/>
	<path d="M15.739,57.789c-0.443-0.183-0.836-0.479-1.135-0.857c-0.341-0.432-0.97-0.506-1.404-0.165
		c-0.434,0.343-0.507,0.972-0.164,1.405c0.51,0.646,1.181,1.152,1.939,1.466c0.125,0.052,0.254,0.076,0.382,0.076
		c0.393,0,0.765-0.233,0.924-0.619C16.492,58.585,16.25,58,15.739,57.789z"/>
	<path d="M32.848,58h-1.948c-0.553,0-1,0.448-1,1s0.447,1,1,1h1.948c0.553,0,1-0.448,1-1S33.4,58,32.848,58z"/>
	<path d="M27.005,58h-1.948c-0.553,0-1,0.448-1,1s0.447,1,1,1h1.948c0.553,0,1-0.448,1-1S27.558,58,27.005,58z"/>
	<path d="M50.376,58h-1.947c-0.553,0-1,0.448-1,1s0.447,1,1,1h1.947c0.553,0,1-0.448,1-1S50.929,58,50.376,58z"/>
	<path d="M54.876,13c0-0.552-0.447-1-1-1h-1.947c-0.553,0-1,0.448-1,1s0.447,1,1,1h1.947C54.429,14,54.876,13.552,54.876,13z"/>
	<path d="M59,41.619c-0.553,0-1,0.448-1,1v1.948c0,0.552,0.447,1,1,1s1-0.448,1-1v-1.948C60,42.067,59.553,41.619,59,41.619z"/>
	<path d="M59,35.776c-0.553,0-1,0.448-1,1v1.948c0,0.552,0.447,1,1,1s1-0.448,1-1v-1.948C60,36.224,59.553,35.776,59,35.776z"/>
	<path d="M59,29.933c-0.553,0-1,0.448-1,1v1.948c0,0.552,0.447,1,1,1s1-0.448,1-1v-1.948C60,30.381,59.553,29.933,59,29.933z"/>
	<path d="M59,53.305c-0.553,0-1,0.448-1,1v0.885c0,0.264-0.036,0.525-0.107,0.775c-0.151,0.531,0.157,1.084,0.688,1.235
		c0.091,0.026,0.184,0.039,0.274,0.039c0.436,0,0.836-0.287,0.961-0.727C59.938,56.084,60,55.639,60,55.19v-0.885
		C60,53.753,59.553,53.305,59,53.305z"/>
	<path d="M59,47.462c-0.553,0-1,0.448-1,1v1.948c0,0.552,0.447,1,1,1s1-0.448,1-1v-1.948C60,47.91,59.553,47.462,59,47.462z"/>
	<path d="M55.942,57.899C55.698,57.966,55.444,58,55.19,58h-0.919c-0.553,0-1,0.448-1,1s0.447,1,1,1h0.919
		c0.433,0,0.864-0.058,1.281-0.172c0.532-0.146,0.846-0.696,0.7-1.229C57.025,58.066,56.474,57.752,55.942,57.899z"/>
	<path d="M59,24.09c-0.553,0-1,0.448-1,1v1.948c0,0.552,0.447,1,1,1s1-0.448,1-1V25.09C60,24.538,59.553,24.09,59,24.09z"/>
	<path d="M58.726,16.388c0.125,0,0.251-0.023,0.373-0.073c0.513-0.206,0.761-0.789,0.555-1.301c-0.306-0.76-0.807-1.436-1.447-1.952
		c-0.433-0.348-1.061-0.279-1.406,0.151c-0.347,0.43-0.279,1.059,0.15,1.406c0.376,0.303,0.669,0.698,0.848,1.142
		C57.955,16.151,58.33,16.388,58.726,16.388z"/>
	<path d="M59,18.248c-0.553,0-1,0.448-1,1v1.948c0,0.552,0.447,1,1,1s1-0.448,1-1v-1.948C60,18.695,59.553,18.248,59,18.248z"/>
	<circle cx="8" cy="8" r="1"/>
	<circle cx="5" cy="5" r="1"/>
	<circle cx="11" cy="5" r="1"/>
	<circle cx="14" cy="8" r="1"/>
	<circle cx="20" cy="8" r="1"/>
	<circle cx="32" cy="8" r="1"/>
	<circle cx="17" cy="5" r="1"/>
	<circle cx="23" cy="5" r="1"/>
	<circle cx="26" cy="8" r="1"/>
	<circle cx="29" cy="5" r="1"/>
	<circle cx="35" cy="5" r="1"/>
	<circle cx="38" cy="8" r="1"/>
	<circle cx="41" cy="5" r="1"/>
	<circle cx="44" cy="8" r="1"/>
	<circle cx="8" cy="20" r="1"/>
	<circle cx="8" cy="14" r="1"/>
	<circle cx="5" cy="11" r="1"/>
	<circle cx="5" cy="17" r="1"/>
	<circle cx="11" cy="11" r="1"/>
	<circle cx="14" cy="14" r="1"/>
	<circle cx="20" cy="14" r="1"/>
	<circle cx="17" cy="11" r="1"/>
	<circle cx="11" cy="17" r="1"/>
	<circle cx="14" cy="20" r="1"/>
	<circle cx="20" cy="20" r="1"/>
	<circle cx="32" cy="20" r="1"/>
	<circle cx="17" cy="17" r="1"/>
	<circle cx="23" cy="11" r="1"/>
	<circle cx="26" cy="14" r="1"/>
	<circle cx="32" cy="14" r="1"/>
	<circle cx="29" cy="11" r="1"/>
	<circle cx="23" cy="17" r="1"/>
	<circle cx="26" cy="20" r="1"/>
	<circle cx="29" cy="17" r="1"/>
	<circle cx="35" cy="11" r="1"/>
	<circle cx="35" cy="17" r="1"/>
	<circle cx="38" cy="20" r="1"/>
	<circle cx="38" cy="14" r="1"/>
	<circle cx="41" cy="11" r="1"/>
	<circle cx="41" cy="17" r="1"/>
	<circle cx="44" cy="20" r="1"/>
	<circle cx="44" cy="14" r="1"/>
	<circle cx="8" cy="32" r="1"/>
	<circle cx="8" cy="26" r="1"/>
	<circle cx="5" cy="23" r="1"/>
	<circle cx="5" cy="29" r="1"/>
	<circle cx="11" cy="23" r="1"/>
	<circle cx="14" cy="26" r="1"/>
	<circle cx="20" cy="26" r="1"/>
	<circle cx="17" cy="23" r="1"/>
	<circle cx="11" cy="29" r="1"/>
	<circle cx="14" cy="32" r="1"/>
	<circle cx="20" cy="32" r="1"/>
	<circle cx="32" cy="32" r="1"/>
	<circle cx="17" cy="29" r="1"/>
	<circle cx="23" cy="23" r="1"/>
	<circle cx="26" cy="26" r="1"/>
	<circle cx="32" cy="26" r="1"/>
	<circle cx="29" cy="23" r="1"/>
	<circle cx="23" cy="29" r="1"/>
	<circle cx="26" cy="32" r="1"/>
	<circle cx="29" cy="29" r="1"/>
	<circle cx="35" cy="23" r="1"/>
	<circle cx="35" cy="29" r="1"/>
	<circle cx="38" cy="32" r="1"/>
	<circle cx="38" cy="26" r="1"/>
	<circle cx="41" cy="23" r="1"/>
	<circle cx="41" cy="29" r="1"/>
	<circle cx="44" cy="32" r="1"/>
	<circle cx="44" cy="26" r="1"/>
	<circle cx="8" cy="44" r="1"/>
	<circle cx="8" cy="38" r="1"/>
	<circle cx="5" cy="35" r="1"/>
	<circle cx="5" cy="41" r="1"/>
	<circle cx="11" cy="35" r="1"/>
	<circle cx="14" cy="38" r="1"/>
	<circle cx="20" cy="38" r="1"/>
	<circle cx="17" cy="35" r="1"/>
	<circle cx="11" cy="41" r="1"/>
	<circle cx="14" cy="44" r="1"/>
	<circle cx="20" cy="44" r="1"/>
	<circle cx="32" cy="44" r="1"/>
	<circle cx="17" cy="41" r="1"/>
	<circle cx="23" cy="35" r="1"/>
	<circle cx="26" cy="38" r="1"/>
	<circle cx="32" cy="38" r="1"/>
	<circle cx="29" cy="35" r="1"/>
	<circle cx="23" cy="41" r="1"/>
	<circle cx="26" cy="44" r="1"/>
	<circle cx="29" cy="41" r="1"/>
	<circle cx="35" cy="35" r="1"/>
	<circle cx="35" cy="41" r="1"/>
	<circle cx="38" cy="44" r="1"/>
	<circle cx="38" cy="38" r="1"/>
	<circle cx="41" cy="35" r="1"/>
	<circle cx="41" cy="41" r="1"/>
	<circle cx="44" cy="44" r="1"/>
	<circle cx="44" cy="38" r="1"/>
</g>
<g>
</g>
<g>
</g>
<g>
</g>
<g>
</g>
<g>
</g>
<g>
</g>
<g>
</g>
<g>
</g>
<g>
</g>
<g>
</g>
<g>
</g>
<g>
</g>
<g>
</g>
<g>
</g>
<g>
</g>
</svg>
